# xmcd CD database file
#
# Track frame offsets:
#	225
#	12945
#	27655
#	38745
#	54297
#	75830
#	88160
#	103360
#	114909
#	129727
#	147707
#	159716
#	172230
#
# Disc length: 2507 seconds
#
# Revision: 2
# Processed by: cddbd v1.4PL0 Copyright (c) Steve Scherf et al.
# Submitted via: CDex 1.40Release
#
DISCID=b209c80d
DTITLE=Fragment - One of these days
DYEAR=1998
DGENRE=Bluegrass
TTITLE0=Fields of gold
TTITLE1=Runaway kind
TTITLE2=Can't set you free
TTITLE3=Forever young
TTITLE4=Beside a stream
TTITLE5=I'll wish you well
TTITLE6=That's a sova
TTITLE7=Up on the hill
TTITLE8=One of these days
TTITLE9=If I had my way
TTITLE10=Sleepwalkin'
TTITLE11=Johnny
TTITLE12=Little Wav
EXTD=YEAR: 1998 ID3G: 89
EXTT0=
EXTT1=
EXTT2=
EXTT3=
EXTT4=
EXTT5=
EXTT6=
EXTT7=
EXTT8=
EXTT9=
EXTT10=
EXTT11=
EXTT12=
PLAYORDER=
